<svg width="24" height="24" viewBox="0 0 24 24" fill="none" xmlns="http://www.w3.org/2000/svg">
<path d="M22.8041 22.8324C23.463 22.1787 23.463 21.1133 22.8041 20.4596L17.7452 15.441C18.9216 13.836 19.6171 11.862 19.6171 9.73C19.6171 4.365 15.2171 0 9.80806 0C4.40002 0 0 4.365 0 9.73C0 15.096 4.40002 19.46 9.80806 19.46C11.8584 19.46 13.7625 18.833 15.3391 17.762L20.4502 22.8324C21.1017 23.4788 22.1525 23.4788 22.8041 22.8324ZM2.8769 9.73C2.8769 5.938 5.98664 2.853 9.80906 2.853C13.6315 2.853 16.7412 5.938 16.7412 9.73C16.7412 13.522 13.6315 16.607 9.80906 16.607C5.98564 16.607 2.8769 13.522 2.8769 9.73Z" fill="#00408B"/>
</svg>
