<svg width="34" height="34" viewBox="0 0 34 34" fill="none" xmlns="http://www.w3.org/2000/svg">
<path fill-rule="evenodd" clip-rule="evenodd" d="M17 17C19.3472 17 21.25 15.0972 21.25 12.75C21.25 10.4027 19.3472 8.49996 17 8.49996C14.6527 8.49996 12.75 10.4027 12.75 12.75C12.75 15.0972 14.6527 17 17 17ZM24.0833 12.75C24.0833 16.662 20.912 19.8333 17 19.8333C13.0879 19.8333 9.91663 16.662 9.91663 12.75C9.91663 8.83794 13.0879 5.66663 17 5.66663C20.912 5.66663 24.0833 8.83794 24.0833 12.75Z" fill="white"/>
<path fill-rule="evenodd" clip-rule="evenodd" d="M28.8244 29.2214C26.9336 24.5475 22.3519 21.2501 17.0001 21.2501C11.6498 21.2501 7.06925 24.5456 5.17749 29.2175C5.89872 29.9167 6.67988 30.5497 7.51138 31.1095C8.7487 27.0427 12.5288 24.0835 17.0001 24.0835C21.4726 24.0835 25.2535 27.0442 26.4898 31.1126C27.3217 30.553 28.103 29.9202 28.8244 29.2214Z" fill="white"/>
</svg>
